<mxfile host="Electron" modified="2025-06-26T08:08:30.836Z" agent="Mozilla/5.0 (Windows NT 10.0; Win64; x64) AppleWebKit/537.36 (KHTML, like Gecko) draw.io/21.1.2 Chrome/106.0.5249.199 Electron/21.4.3 Safari/537.36" etag="C_jjw7ticNkREkaGKukX" version="21.1.2" type="device">
  <diagram id="financial-architecture" name="财务域资金分析">
    <mxGraphModel dx="2150" dy="1035" grid="1" gridSize="10" guides="1" tooltips="1" connect="0" arrows="0" fold="1" page="1" pageScale="1" pageWidth="1600" pageHeight="900" math="0" shadow="0">
      <root>
        <mxCell id="0" />
        <mxCell id="1" parent="0" />
        <mxCell id="2" value="财务域资金分析" style="text;html=1;strokeColor=none;fillColor=none;fontSize=28;fontStyle=1;textAlign=center;" parent="1" vertex="1">
          <mxGeometry x="800" y="50" width="400" height="40" as="geometry" />
        </mxCell>
        <mxCell id="3" value="" style="rounded=0;whiteSpace=wrap;html=1;fillColor=#fff2cc;strokeColor=#d6b656;opacity=30;" parent="1" vertex="1">
          <mxGeometry x="250" y="250" width="1350" height="370" as="geometry" />
        </mxCell>
        <mxCell id="4" value="" style="rounded=0;whiteSpace=wrap;html=1;fillColor=#ffe6cc;strokeColor=#d79b00;opacity=30;" parent="1" vertex="1">
          <mxGeometry x="250" y="625" width="1700" height="250" as="geometry" />
        </mxCell>
        <mxCell id="5" value="数据采集域" style="text;html=1;strokeColor=none;fillColor=none;fontSize=24;fontStyle=1;textAlign=center;fontWeight=bold;" parent="1" vertex="1">
          <mxGeometry x="290" y="415" width="200" height="40" as="geometry" />
        </mxCell>
        <mxCell id="6" value="数据处理域" style="text;html=1;strokeColor=none;fillColor=none;fontSize=24;fontStyle=1;textAlign=center;fontWeight=bold;" parent="1" vertex="1">
          <mxGeometry x="290" y="730" width="200" height="40" as="geometry" />
        </mxCell>
        <mxCell id="7" value="银行金融数据" style="whiteSpace=wrap;html=1;fillColor=#e6f2ff;strokeColor=#6495ed;fontSize=18;textAlign=center;verticalAlign=top;paddingTop=10;rounded=0;" parent="1" vertex="1">
          <mxGeometry x="550" y="290" width="300" height="290" as="geometry" />
        </mxCell>
        <mxCell id="8" value="企业内部数据" style="whiteSpace=wrap;html=1;fillColor=#e6f2ff;strokeColor=#6495ed;fontSize=18;textAlign=center;verticalAlign=top;paddingTop=10;rounded=0;" parent="1" vertex="1">
          <mxGeometry x="900" y="290" width="300" height="290" as="geometry" />
        </mxCell>
        <mxCell id="9" value="外部监管数据" style="whiteSpace=wrap;html=1;fillColor=#e6f2ff;strokeColor=#6495ed;fontSize=18;textAlign=center;verticalAlign=top;paddingTop=10;rounded=0;" parent="1" vertex="1">
          <mxGeometry x="1250" y="290" width="300" height="290" as="geometry" />
        </mxCell>
        <mxCell id="10" value="数据清洗转换" style="whiteSpace=wrap;html=1;fillColor=#e6f2ff;strokeColor=#6495ed;fontSize=18;textAlign=center;verticalAlign=top;paddingTop=10;rounded=0;" parent="1" vertex="1">
          <mxGeometry x="550" y="665" width="300" height="170" as="geometry" />
        </mxCell>
        <mxCell id="11" value="数据集成整合" style="whiteSpace=wrap;html=1;fillColor=#e6f2ff;strokeColor=#6495ed;fontSize=18;textAlign=center;verticalAlign=top;paddingTop=10;rounded=0;" parent="1" vertex="1">
          <mxGeometry x="900" y="665" width="300" height="170" as="geometry" />
        </mxCell>
        <mxCell id="12" value="数据质量管控" style="whiteSpace=wrap;html=1;fillColor=#e6f2ff;strokeColor=#6495ed;fontSize=18;textAlign=center;verticalAlign=top;paddingTop=10;rounded=0;" parent="1" vertex="1">
          <mxGeometry x="1250" y="665" width="300" height="170" as="geometry" />
        </mxCell>
        <mxCell id="13" value="数据质量管控1" style="whiteSpace=wrap;html=1;fillColor=#e6f2ff;strokeColor=#6495ed;fontSize=18;textAlign=center;verticalAlign=top;paddingTop=10;rounded=0;" parent="1" vertex="1">
          <mxGeometry x="1600" y="665" width="300" height="170" as="geometry" />
        </mxCell>
        <mxCell id="14" value="活期账户流水" style="rounded=1;whiteSpace=wrap;html=1;fillColor=#f0f8ff;strokeColor=#6495ed;fontSize=14;" parent="1" vertex="1">
          <mxGeometry x="570" y="340" width="260" height="35" as="geometry" />
        </mxCell>
        <mxCell id="15" value="定期账户流水" style="rounded=1;whiteSpace=wrap;html=1;fillColor=#f0f8ff;strokeColor=#6495ed;fontSize=14;" parent="1" vertex="1">
          <mxGeometry x="570" y="380" width="260" height="35" as="geometry" />
        </mxCell>
        <mxCell id="16" value="保证金账户流水" style="rounded=1;whiteSpace=wrap;html=1;fillColor=#f0f8ff;strokeColor=#6495ed;fontSize=14;" parent="1" vertex="1">
          <mxGeometry x="570" y="420" width="260" height="35" as="geometry" />
        </mxCell>
        <mxCell id="17" value="总账科目数据" style="rounded=1;whiteSpace=wrap;html=1;fillColor=#f0f8ff;strokeColor=#6495ed;fontSize=14;" parent="1" vertex="1">
          <mxGeometry x="920" y="340" width="260" height="35" as="geometry" />
        </mxCell>
        <mxCell id="18" value="应收应付数据1" style="rounded=1;whiteSpace=wrap;html=1;fillColor=#f0f8ff;strokeColor=#6495ed;fontSize=14;" parent="1" vertex="1">
          <mxGeometry x="920" y="380" width="260" height="35" as="geometry" />
        </mxCell>
        <mxCell id="19" value="应收应付数据2" style="rounded=1;whiteSpace=wrap;html=1;fillColor=#f0f8ff;strokeColor=#6495ed;fontSize=14;" parent="1" vertex="1">
          <mxGeometry x="920" y="420" width="260" height="35" as="geometry" />
        </mxCell>
        <mxCell id="20" value="应收应付数据3" style="rounded=1;whiteSpace=wrap;html=1;fillColor=#f0f8ff;strokeColor=#6495ed;fontSize=14;" parent="1" vertex="1">
          <mxGeometry x="920" y="460" width="260" height="35" as="geometry" />
        </mxCell>
        <mxCell id="21" value="应收应付数据4" style="rounded=1;whiteSpace=wrap;html=1;fillColor=#f0f8ff;strokeColor=#6495ed;fontSize=14;" parent="1" vertex="1">
          <mxGeometry x="920" y="500" width="260" height="35" as="geometry" />
        </mxCell>
        <mxCell id="22" value="固定资产数据5" style="rounded=1;whiteSpace=wrap;html=1;fillColor=#f0f8ff;strokeColor=#6495ed;fontSize=14;" parent="1" vertex="1">
          <mxGeometry x="920" y="540" width="260" height="35" as="geometry" />
        </mxCell>
        <mxCell id="23" value="增值税申报数据" style="rounded=1;whiteSpace=wrap;html=1;fillColor=#f0f8ff;strokeColor=#6495ed;fontSize=14;" parent="1" vertex="1">
          <mxGeometry x="1270" y="340" width="260" height="35" as="geometry" />
        </mxCell>
        <mxCell id="24" value="企业所得税数据" style="rounded=1;whiteSpace=wrap;html=1;fillColor=#f0f8ff;strokeColor=#6495ed;fontSize=14;" parent="1" vertex="1">
          <mxGeometry x="1270" y="380" width="260" height="35" as="geometry" />
        </mxCell>
        <mxCell id="25" value="附加税费数据" style="rounded=1;whiteSpace=wrap;html=1;fillColor=#f0f8ff;strokeColor=#6495ed;fontSize=14;" parent="1" vertex="1">
          <mxGeometry x="1270" y="420" width="260" height="35" as="geometry" />
        </mxCell>
        <mxCell id="26" value="缺失值处理" style="rounded=1;whiteSpace=wrap;html=1;fillColor=#f0f8ff;strokeColor=#6495ed;fontSize=14;" parent="1" vertex="1">
          <mxGeometry x="570" y="715" width="260" height="35" as="geometry" />
        </mxCell>
        <mxCell id="27" value="数据标准化" style="rounded=1;whiteSpace=wrap;html=1;fillColor=#f0f8ff;strokeColor=#6495ed;fontSize=14;" parent="1" vertex="1">
          <mxGeometry x="570" y="755" width="260" height="35" as="geometry" />
        </mxCell>
        <mxCell id="28" value="数据关联映射" style="rounded=1;whiteSpace=wrap;html=1;fillColor=#f0f8ff;strokeColor=#6495ed;fontSize=14;" parent="1" vertex="1">
          <mxGeometry x="920" y="715" width="260" height="35" as="geometry" />
        </mxCell>
        <mxCell id="29" value="数据合并汇总" style="rounded=1;whiteSpace=wrap;html=1;fillColor=#f0f8ff;strokeColor=#6495ed;fontSize=14;" parent="1" vertex="1">
          <mxGeometry x="920" y="755" width="260" height="35" as="geometry" />
        </mxCell>
        <mxCell id="30" value="数据仓库构建" style="rounded=1;whiteSpace=wrap;html=1;fillColor=#f0f8ff;strokeColor=#6495ed;fontSize=14;" parent="1" vertex="1">
          <mxGeometry x="920" y="795" width="260" height="35" as="geometry" />
        </mxCell>
        <mxCell id="31" value="数据一致性维护" style="rounded=1;whiteSpace=wrap;html=1;fillColor=#f0f8ff;strokeColor=#6495ed;fontSize=14;" parent="1" vertex="1">
          <mxGeometry x="1270" y="715" width="260" height="35" as="geometry" />
        </mxCell>
        <mxCell id="32" value="数据一致性维护1" style="rounded=1;whiteSpace=wrap;html=1;fillColor=#f0f8ff;strokeColor=#6495ed;fontSize=14;" parent="1" vertex="1">
          <mxGeometry x="1620" y="715" width="260" height="35" as="geometry" />
        </mxCell>
        <mxCell id="gk-US82FVc6iSz1xNWGK-32" value="&lt;div style=&quot;color: rgb(248, 248, 242); background-color: rgb(39, 40, 34); font-family: Consolas, &amp;quot;Microsoft Yahei UI Light&amp;quot;, &amp;quot;Courier New&amp;quot;, monospace, Consolas, &amp;quot;Courier New&amp;quot;, monospace; font-size: 14px; line-height: 24px;&quot;&gt;secondaryTitleHeight&lt;/div&gt;" style="rounded=0;whiteSpace=wrap;html=1;" parent="1" vertex="1">
          <mxGeometry x="1550" y="290" width="120" height="50" as="geometry" />
        </mxCell>
        <mxCell id="gk-US82FVc6iSz1xNWGK-33" value="" style="rounded=0;whiteSpace=wrap;html=1;" parent="1" vertex="1">
          <mxGeometry x="1360" y="250" width="120" height="40" as="geometry" />
        </mxCell>
        <mxCell id="gk-US82FVc6iSz1xNWGK-34" value="" style="rounded=0;whiteSpace=wrap;html=1;" parent="1" vertex="1">
          <mxGeometry x="1340" y="580" width="120" height="40" as="geometry" />
        </mxCell>
        <mxCell id="gk-US82FVc6iSz1xNWGK-37" value="&lt;div style=&quot;color: rgb(248, 248, 242); background-color: rgb(39, 40, 34); font-family: Consolas, &amp;quot;Microsoft Yahei UI Light&amp;quot;, &amp;quot;Courier New&amp;quot;, monospace, Consolas, &amp;quot;Courier New&amp;quot;, monospace; font-size: 14px; line-height: 24px;&quot;&gt;tertiaryYGap&lt;/div&gt;" style="rounded=0;whiteSpace=wrap;html=1;" parent="1" vertex="1">
          <mxGeometry x="1550" y="340" width="120" height="40" as="geometry" />
        </mxCell>
        <mxCell id="gk-US82FVc6iSz1xNWGK-38" value="" style="rounded=0;whiteSpace=wrap;html=1;" parent="1" vertex="1">
          <mxGeometry x="1550" y="380" width="120" height="40" as="geometry" />
        </mxCell>
        <mxCell id="gk-US82FVc6iSz1xNWGK-39" value="" style="rounded=0;whiteSpace=wrap;html=1;" parent="1" vertex="1">
          <mxGeometry x="1550" y="420" width="120" height="40" as="geometry" />
        </mxCell>
        <mxCell id="gk-US82FVc6iSz1xNWGK-40" value="" style="rounded=0;whiteSpace=wrap;html=1;" parent="1" vertex="1">
          <mxGeometry x="1550" y="460" width="120" height="40" as="geometry" />
        </mxCell>
        <mxCell id="gk-US82FVc6iSz1xNWGK-41" value="" style="rounded=0;whiteSpace=wrap;html=1;" parent="1" vertex="1">
          <mxGeometry x="1550" y="500" width="120" height="40" as="geometry" />
        </mxCell>
        <mxCell id="gk-US82FVc6iSz1xNWGK-42" value="" style="rounded=0;whiteSpace=wrap;html=1;" parent="1" vertex="1">
          <mxGeometry x="1550" y="540" width="120" height="40" as="geometry" />
        </mxCell>
        <mxCell id="gk-US82FVc6iSz1xNWGK-43" value="&lt;div style=&quot;color: rgb(248, 248, 242); background-color: rgb(39, 40, 34); font-family: Consolas, &amp;quot;Microsoft Yahei UI Light&amp;quot;, &amp;quot;Courier New&amp;quot;, monospace, Consolas, &amp;quot;Courier New&amp;quot;, monospace; font-size: 14px; line-height: 24px;&quot;&gt;boxX&lt;/div&gt;" style="rounded=0;whiteSpace=wrap;html=1;" parent="1" vertex="1">
          <mxGeometry y="250" width="250" height="40" as="geometry" />
        </mxCell>
        <mxCell id="gk-US82FVc6iSz1xNWGK-44" value="&lt;div style=&quot;color: rgb(248, 248, 242); background-color: rgb(39, 40, 34); font-family: Consolas, &amp;quot;Microsoft Yahei UI Light&amp;quot;, &amp;quot;Courier New&amp;quot;, monospace, Consolas, &amp;quot;Courier New&amp;quot;, monospace; font-size: 14px; line-height: 24px;&quot;&gt;currentY&lt;/div&gt;" style="rounded=0;whiteSpace=wrap;html=1;" parent="1" vertex="1">
          <mxGeometry x="200" width="50" height="250" as="geometry" />
        </mxCell>
        <mxCell id="gk-US82FVc6iSz1xNWGK-45" value="&lt;div style=&quot;color: rgb(248, 248, 242); background-color: rgb(39, 40, 34); font-family: Consolas, &amp;quot;Microsoft Yahei UI Light&amp;quot;, &amp;quot;Courier New&amp;quot;, monospace, Consolas, &amp;quot;Courier New&amp;quot;, monospace; font-size: 14px; line-height: 24px;&quot;&gt;boxHeight&lt;/div&gt;" style="rounded=0;whiteSpace=wrap;html=1;" parent="1" vertex="1">
          <mxGeometry x="1670" y="250" width="120" height="370" as="geometry" />
        </mxCell>
        <mxCell id="gk-US82FVc6iSz1xNWGK-46" value="" style="rounded=0;whiteSpace=wrap;html=1;" parent="1" vertex="1">
          <mxGeometry x="550" y="200" width="350" height="40" as="geometry" />
        </mxCell>
        <mxCell id="gk-US82FVc6iSz1xNWGK-47" value="&lt;div style=&quot;color: rgb(248, 248, 242); background-color: rgb(39, 40, 34); font-family: Consolas, &amp;quot;Microsoft Yahei UI Light&amp;quot;, &amp;quot;Courier New&amp;quot;, monospace, Consolas, &amp;quot;Courier New&amp;quot;, monospace; font-size: 14px; line-height: 24px;&quot;&gt;secondaryX&lt;/div&gt;" style="rounded=0;whiteSpace=wrap;html=1;" parent="1" vertex="1">
          <mxGeometry x="250" y="200" width="300" height="40" as="geometry" />
        </mxCell>
        <mxCell id="gk-US82FVc6iSz1xNWGK-48" value="" style="rounded=0;whiteSpace=wrap;html=1;" parent="1" vertex="1">
          <mxGeometry x="900" y="200" width="350" height="40" as="geometry" />
        </mxCell>
        <mxCell id="gk-US82FVc6iSz1xNWGK-49" value="" style="rounded=0;whiteSpace=wrap;html=1;" parent="1" vertex="1">
          <mxGeometry x="1250" y="200" width="350" height="40" as="geometry" />
        </mxCell>
        <mxCell id="gk-US82FVc6iSz1xNWGK-50" value="" style="rounded=0;whiteSpace=wrap;html=1;" parent="1" vertex="1">
          <mxGeometry x="250" y="417.5" width="40" height="40" as="geometry" />
        </mxCell>
        <mxCell id="gk-US82FVc6iSz1xNWGK-51" value="&lt;div style=&quot;color: rgb(248, 248, 242); background-color: rgb(39, 40, 34); font-family: Consolas, &amp;quot;Microsoft Yahei UI Light&amp;quot;, &amp;quot;Courier New&amp;quot;, monospace, Consolas, &amp;quot;Courier New&amp;quot;, monospace; font-size: 14px; line-height: 24px;&quot;&gt;primaryBoxPadding&lt;/div&gt;" style="rounded=0;whiteSpace=wrap;html=1;" parent="1" vertex="1">
          <mxGeometry x="550" y="250" width="120" height="40" as="geometry" />
        </mxCell>
        <mxCell id="gk-US82FVc6iSz1xNWGK-52" value="&lt;div style=&quot;color: rgb(248, 248, 242); background-color: rgb(39, 40, 34); font-family: Consolas, &amp;quot;Microsoft Yahei UI Light&amp;quot;, &amp;quot;Courier New&amp;quot;, monospace, Consolas, &amp;quot;Courier New&amp;quot;, monospace; font-size: 14px; line-height: 24px;&quot;&gt;primaryBoxPadding&lt;/div&gt;" style="rounded=0;whiteSpace=wrap;html=1;" parent="1" vertex="1">
          <mxGeometry x="550" y="580" width="120" height="40" as="geometry" />
        </mxCell>
        <mxCell id="gk-US82FVc6iSz1xNWGK-53" value="" style="rounded=0;whiteSpace=wrap;html=1;" parent="1" vertex="1">
          <mxGeometry x="550" y="340" width="20" height="40" as="geometry" />
        </mxCell>
        <mxCell id="gk-US82FVc6iSz1xNWGK-55" value="&lt;div style=&quot;color: rgb(248, 248, 242); background-color: rgb(39, 40, 34); font-family: Consolas, &amp;quot;Microsoft Yahei UI Light&amp;quot;, &amp;quot;Courier New&amp;quot;, monospace, Consolas, &amp;quot;Courier New&amp;quot;, monospace; font-size: 14px; line-height: 24px;&quot;&gt;&lt;div style=&quot;line-height: 24px;&quot;&gt;secondaryY&lt;/div&gt;&lt;/div&gt;" style="rounded=0;whiteSpace=wrap;html=1;" parent="1" vertex="1">
          <mxGeometry x="489" width="50" height="290" as="geometry" />
        </mxCell>
        <mxCell id="gk-US82FVc6iSz1xNWGK-56" value="300" style="rounded=0;whiteSpace=wrap;html=1;" parent="1" vertex="1">
          <mxGeometry x="900" y="250" width="300" height="40" as="geometry" />
        </mxCell>
        <mxCell id="gk-US82FVc6iSz1xNWGK-57" value="260" style="rounded=0;whiteSpace=wrap;html=1;" parent="1" vertex="1">
          <mxGeometry x="570" y="457.5" width="260" height="40" as="geometry" />
        </mxCell>
        <mxCell id="gk-US82FVc6iSz1xNWGK-58" value="35" style="rounded=0;whiteSpace=wrap;html=1;" parent="1" vertex="1">
          <mxGeometry x="830" y="340" width="50" height="35" as="geometry" />
        </mxCell>
        <mxCell id="uZR7Vs6W1BGIu44XceCd-32" value="银行金融数据" style="whiteSpace=wrap;html=1;fillColor=#e6f2ff;strokeColor=#6495ed;fontSize=18;textAlign=center;verticalAlign=top;paddingTop=10;rounded=0;" vertex="1" parent="1">
          <mxGeometry x="550" y="960" width="580" height="290" as="geometry" />
        </mxCell>
        <mxCell id="uZR7Vs6W1BGIu44XceCd-33" value="活期账户流水" style="rounded=1;whiteSpace=wrap;html=1;fillColor=#f0f8ff;strokeColor=#6495ed;fontSize=14;" vertex="1" parent="1">
          <mxGeometry x="570" y="1010" width="260" height="35" as="geometry" />
        </mxCell>
        <mxCell id="uZR7Vs6W1BGIu44XceCd-34" value="定期账户流水" style="rounded=1;whiteSpace=wrap;html=1;fillColor=#f0f8ff;strokeColor=#6495ed;fontSize=14;" vertex="1" parent="1">
          <mxGeometry x="570" y="1050" width="260" height="35" as="geometry" />
        </mxCell>
        <mxCell id="uZR7Vs6W1BGIu44XceCd-35" value="保证金账户流水" style="rounded=1;whiteSpace=wrap;html=1;fillColor=#f0f8ff;strokeColor=#6495ed;fontSize=14;" vertex="1" parent="1">
          <mxGeometry x="570" y="1090" width="260" height="35" as="geometry" />
        </mxCell>
        <mxCell id="uZR7Vs6W1BGIu44XceCd-37" value="" style="rounded=0;whiteSpace=wrap;html=1;" vertex="1" parent="1">
          <mxGeometry x="550" y="1010" width="20" height="40" as="geometry" />
        </mxCell>
        <mxCell id="uZR7Vs6W1BGIu44XceCd-38" value="260" style="rounded=0;whiteSpace=wrap;html=1;" vertex="1" parent="1">
          <mxGeometry x="570" y="1127.5" width="260" height="40" as="geometry" />
        </mxCell>
        <mxCell id="uZR7Vs6W1BGIu44XceCd-40" value="" style="rounded=0;whiteSpace=wrap;html=1;" vertex="1" parent="1">
          <mxGeometry x="550" y="920" width="630" height="40" as="geometry" />
        </mxCell>
        <mxCell id="uZR7Vs6W1BGIu44XceCd-41" value="活期账户流水" style="rounded=1;whiteSpace=wrap;html=1;fillColor=#f0f8ff;strokeColor=#6495ed;fontSize=14;" vertex="1" parent="1">
          <mxGeometry x="850" y="1010" width="260" height="35" as="geometry" />
        </mxCell>
        <mxCell id="uZR7Vs6W1BGIu44XceCd-42" value="" style="rounded=0;whiteSpace=wrap;html=1;" vertex="1" parent="1">
          <mxGeometry x="1110" y="1010" width="20" height="40" as="geometry" />
        </mxCell>
        <mxCell id="uZR7Vs6W1BGIu44XceCd-43" value="" style="rounded=0;whiteSpace=wrap;html=1;" vertex="1" parent="1">
          <mxGeometry x="550" y="880" width="350" height="40" as="geometry" />
        </mxCell>
        <mxCell id="uZR7Vs6W1BGIu44XceCd-44" value="" style="rounded=0;whiteSpace=wrap;html=1;" vertex="1" parent="1">
          <mxGeometry x="900" y="880" width="280" height="40" as="geometry" />
        </mxCell>
      </root>
    </mxGraphModel>
  </diagram>
</mxfile>
